<svg xmlns="http://www.w3.org/2000/svg" viewBox="0 0 32 32" width="128" height="128">
  <title>drop</title>
  <defs>
    <clipPath id="clip-bead"><path d="M16 2.5s8.5 9.2 8.5 15.1a8.5 8.5 0 0 1-17 0C7.5 11.7 16 2.5 16 2.5Z"/></clipPath>
    <linearGradient id="grad-bead" x1="0" y1="0" x2="0.85" y2="1">
      <stop offset="0" stop-color="#deeaf8"/>
      <stop offset="1" stop-color="#94b0d2"/>
    </linearGradient>
    <clipPath id="clip-silhouette"><path d="M16 2.5s8.5 9.2 8.5 15.1a8.5 8.5 0 0 1-17 0C7.5 11.7 16 2.5 16 2.5Z"/></clipPath>
    <linearGradient id="grad-key" x1="0" y1="0" x2="0.9" y2="1">
      <stop offset="0" stop-color="#ffffff" stop-opacity="0.62"/>
      <stop offset="0.3" stop-color="#ffffff" stop-opacity="0.2"/>
      <stop offset="0.6" stop-color="#ffffff" stop-opacity="0"/>
    </linearGradient>
  </defs>
  <g id="drop">
    <g id="bead-glass-top" clip-path="url(#clip-bead)"><title>bead · glass/top</title><path d="M16 2.5s8.5 9.2 8.5 15.1a8.5 8.5 0 0 1-17 0C7.5 11.7 16 2.5 16 2.5Z" fill="url(#grad-bead)"/><path d="M16 2.5s8.5 9.2 8.5 15.1a8.5 8.5 0 0 1-17 0C7.5 11.7 16 2.5 16 2.5Z" fill="none" stroke="rgba(255, 255, 255, 0.78)" stroke-width="2" transform="translate(0.8 0.8)"/><path d="M16 2.5s8.5 9.2 8.5 15.1a8.5 8.5 0 0 1-17 0C7.5 11.7 16 2.5 16 2.5Z" fill="none" stroke="rgba(0, 0, 0, 0.2)" stroke-width="2" transform="translate(-0.8 -0.8)"/></g>
    <g id="meniscus-edge-hairline"><title>meniscus · edge/hairline</title><path d="M9 20.5a7.6 7.6 0 0 0 14 0" fill="none" stroke="rgba(255, 255, 255, 0.78)" stroke-width="1" stroke-linecap="round" transform="translate(0 0.85)"/><path d="M9 20.5a7.6 7.6 0 0 0 14 0" fill="none" stroke="rgba(0, 0, 0, 0.32)" stroke-width="1" stroke-linecap="round"/></g>
    <g id="key-sheen-color" clip-path="url(#clip-silhouette)" opacity="1" style="mix-blend-mode:screen"><title>key · sheen/color</title><path d="M16 2.5s8.5 9.2 8.5 15.1a8.5 8.5 0 0 1-17 0C7.5 11.7 16 2.5 16 2.5Z" fill="url(#grad-key)"/></g>
    <path id="keyline-edge-hairline" d="M16 2.5s8.5 9.2 8.5 15.1a8.5 8.5 0 0 1-17 0C7.5 11.7 16 2.5 16 2.5Z" fill="none" stroke="rgba(0, 0, 0, 0.32)" stroke-width="1"/>
  </g>
</svg>
