<svg xmlns="http://www.w3.org/2000/svg" viewBox="0 0 32 32" width="128" height="128">
  <title>netBluetooth</title>
  <defs>
    <clipPath id="clip-bead"><path d="M2.5 16a13.5 13.5 0 1 0 27 0a13.5 13.5 0 1 0 -27 0Z"/></clipPath>
    <linearGradient id="grad-bead" x1="0" y1="0" x2="0.85" y2="1">
      <stop offset="0" stop-color="#deeaf8"/>
      <stop offset="1" stop-color="#94b0d2"/>
    </linearGradient>
    <clipPath id="clip-silhouette"><path d="M2.5 16a13.5 13.5 0 1 0 27 0a13.5 13.5 0 1 0 -27 0Z"/></clipPath>
    <linearGradient id="grad-key" x1="0" y1="0" x2="0.9" y2="1">
      <stop offset="0" stop-color="#ffffff" stop-opacity="0.62"/>
      <stop offset="0.3" stop-color="#ffffff" stop-opacity="0.2"/>
      <stop offset="0.6" stop-color="#ffffff" stop-opacity="0"/>
    </linearGradient>
  </defs>
  <g id="netBluetooth">
    <g id="bead-glass-top" clip-path="url(#clip-bead)"><title>bead · glass/top</title><path d="M2.5 16a13.5 13.5 0 1 0 27 0a13.5 13.5 0 1 0 -27 0Z" fill="url(#grad-bead)"/><path d="M2.5 16a13.5 13.5 0 1 0 27 0a13.5 13.5 0 1 0 -27 0Z" fill="none" stroke="rgba(255, 255, 255, 0.78)" stroke-width="2" transform="translate(0.8 0.8)"/><path d="M2.5 16a13.5 13.5 0 1 0 27 0a13.5 13.5 0 1 0 -27 0Z" fill="none" stroke="rgba(0, 0, 0, 0.2)" stroke-width="2" transform="translate(-0.8 -0.8)"/></g>
    <g id="rune-ink-on-accent"><title>rune · ink.on-accent</title><path d="M14.4 14.4l3.2 3.2l-1.6 1.2V13.2l1.6 1.2l-3.2 3.2" fill="none" stroke="#ffffff" stroke-width="1.4" stroke-linecap="round"/></g>
    <g id="key-sheen-color" clip-path="url(#clip-silhouette)" opacity="1" style="mix-blend-mode:screen"><title>key · sheen/color</title><path d="M2.5 16a13.5 13.5 0 1 0 27 0a13.5 13.5 0 1 0 -27 0Z" fill="url(#grad-key)"/></g>
    <path id="keyline-edge-hairline" d="M2.5 16a13.5 13.5 0 1 0 27 0a13.5 13.5 0 1 0 -27 0Z" fill="none" stroke="rgba(0, 0, 0, 0.32)" stroke-width="1"/>
  </g>
</svg>
