<svg xmlns="http://www.w3.org/2000/svg" viewBox="0 0 32 32" width="128" height="128">
  <title>volumeInternal</title>
  <defs>
    <clipPath id="volumeInternal-clip-body"><path d="M3 9h26a2 2 0 0 1 2 2v10a2 2 0 0 1 -2 2h-26a2 2 0 0 1 -2 -2v-10a2 2 0 0 1 2 -2Z"/></clipPath>
    <linearGradient id="volumeInternal-grad-body" x1="0" y1="0" x2="0.85" y2="1">
      <stop offset="0" stop-color="#e9ebee"/>
      <stop offset="1" stop-color="#b9bdc6"/>
    </linearGradient>
    <clipPath id="volumeInternal-clip-plate"><path d="M5.2 12h13.6a1.2 1.2 0 0 1 1.2 1.2v5.6a1.2 1.2 0 0 1 -1.2 1.2h-13.6a1.2 1.2 0 0 1 -1.2 -1.2v-5.6a1.2 1.2 0 0 1 1.2 -1.2Z"/></clipPath>
    <linearGradient id="volumeInternal-grad-plate" x1="0" y1="0" x2="0.85" y2="1">
      <stop offset="0" stop-color="#a6abb4"/>
      <stop offset="1" stop-color="#676a70"/>
    </linearGradient>
    <clipPath id="volumeInternal-clip-led"><path d="M24.8 16a1.2 1.2 0 1 0 2.4 0a1.2 1.2 0 1 0 -2.4 0Z"/></clipPath>
    <clipPath id="volumeInternal-clip-silhouette"><path d="M3 9h26a2 2 0 0 1 2 2v10a2 2 0 0 1 -2 2h-26a2 2 0 0 1 -2 -2v-10a2 2 0 0 1 2 -2Z"/></clipPath>
    <linearGradient id="volumeInternal-grad-key" x1="0" y1="0" x2="0.9" y2="1">
      <stop offset="0" stop-color="#ffffff" stop-opacity="0.62"/>
      <stop offset="0.3" stop-color="#ffffff" stop-opacity="0.2"/>
      <stop offset="0.6" stop-color="#ffffff" stop-opacity="0"/>
    </linearGradient>
  </defs>
  <g id="volumeInternal">
    <g id="body-platinum-top" clip-path="url(#volumeInternal-clip-body)"><title>body · platinum/top</title><path d="M3 9h26a2 2 0 0 1 2 2v10a2 2 0 0 1 -2 2h-26a2 2 0 0 1 -2 -2v-10a2 2 0 0 1 2 -2Z" fill="url(#volumeInternal-grad-body)"/><path d="M3 9h26a2 2 0 0 1 2 2v10a2 2 0 0 1 -2 2h-26a2 2 0 0 1 -2 -2v-10a2 2 0 0 1 2 -2Z" fill="none" stroke="rgba(255, 255, 255, 0.78)" stroke-width="2" transform="translate(0.8 0.8)"/><path d="M3 9h26a2 2 0 0 1 2 2v10a2 2 0 0 1 -2 2h-26a2 2 0 0 1 -2 -2v-10a2 2 0 0 1 2 -2Z" fill="none" stroke="rgba(0, 0, 0, 0.2)" stroke-width="2" transform="translate(-0.8 -0.8)"/></g>
    <g id="plate-platinum-under" clip-path="url(#volumeInternal-clip-plate)"><title>plate · platinum/under</title><path d="M5.2 12h13.6a1.2 1.2 0 0 1 1.2 1.2v5.6a1.2 1.2 0 0 1 -1.2 1.2h-13.6a1.2 1.2 0 0 1 -1.2 -1.2v-5.6a1.2 1.2 0 0 1 1.2 -1.2Z" fill="url(#volumeInternal-grad-plate)"/><path d="M5.2 12h13.6a1.2 1.2 0 0 1 1.2 1.2v5.6a1.2 1.2 0 0 1 -1.2 1.2h-13.6a1.2 1.2 0 0 1 -1.2 -1.2v-5.6a1.2 1.2 0 0 1 1.2 -1.2Z" fill="#000000" opacity="0.128"/><path d="M5.2 12h13.6a1.2 1.2 0 0 1 1.2 1.2v5.6a1.2 1.2 0 0 1 -1.2 1.2h-13.6a1.2 1.2 0 0 1 -1.2 -1.2v-5.6a1.2 1.2 0 0 1 1.2 -1.2Z" fill="none" stroke="rgba(255, 255, 255, 0.78)" stroke-width="2" transform="translate(-0.8 -0.8)"/><path d="M5.2 12h13.6a1.2 1.2 0 0 1 1.2 1.2v5.6a1.2 1.2 0 0 1 -1.2 1.2h-13.6a1.2 1.2 0 0 1 -1.2 -1.2v-5.6a1.2 1.2 0 0 1 1.2 -1.2Z" fill="none" stroke="rgba(0, 0, 0, 0.2)" stroke-width="2" transform="translate(0.8 0.8)"/></g>
    <g id="led-accent-blue-base" clip-path="url(#volumeInternal-clip-led)"><title>led · accent.blue.base</title><path d="M24.8 16a1.2 1.2 0 1 0 2.4 0a1.2 1.2 0 1 0 -2.4 0Z" fill="#3b7dd8"/></g>
    <g id="key-sheen-color" clip-path="url(#volumeInternal-clip-silhouette)" opacity="0.55" style="mix-blend-mode:screen"><title>key · sheen/color</title><path d="M3 9h26a2 2 0 0 1 2 2v10a2 2 0 0 1 -2 2h-26a2 2 0 0 1 -2 -2v-10a2 2 0 0 1 2 -2Z" fill="url(#volumeInternal-grad-key)"/></g>
    <path id="keyline-edge-hairline" d="M3 9h26a2 2 0 0 1 2 2v10a2 2 0 0 1 -2 2h-26a2 2 0 0 1 -2 -2v-10a2 2 0 0 1 2 -2Z" fill="none" stroke="rgba(0, 0, 0, 0.32)" stroke-width="1"/>
  </g>
</svg>
